# This file uses centimeters as units for non-parametric coordinates.

mtllib nest.mtl
g default
v 0.192748 0.163382 0.347440
v 0.088074 0.180022 0.290567
v 0.032025 0.286217 0.297595
v 0.080652 0.375772 0.361497
v 0.185327 0.359133 0.418370
v 0.241374 0.252938 0.411341
v 0.290367 0.121704 0.248694
v 0.109065 0.150524 0.150186
v 0.011988 0.334459 0.162360
v 0.096210 0.489574 0.273040
v 0.277513 0.460754 0.371548
v 0.374590 0.276819 0.359374
v 0.363587 0.130339 0.150541
v 0.154239 0.163617 0.036794
v 0.042143 0.376008 0.050851
v 0.139396 0.555119 0.178654
v 0.348744 0.521840 0.292400
v 0.460840 0.309450 0.278344
v 0.411224 0.198721 0.048790
v 0.229923 0.227541 -0.049718
v 0.132846 0.411476 -0.037544
v 0.217069 0.566591 0.073136
v 0.398371 0.537771 0.171644
v 0.495448 0.353836 0.159470
v 0.437118 0.319108 -0.056760
v 0.332443 0.335747 -0.113633
v 0.276396 0.441942 -0.106605
v 0.325022 0.531498 -0.042703
v 0.429696 0.514859 0.014170
v 0.485744 0.408664 0.007142
v 0.112523 0.254171 0.394458
v 0.409720 0.443561 -0.097121
v 0.061506 0.144175 -0.095904
v -0.058777 0.144175 -0.095904
v -0.118919 0.236774 -0.048191
v -0.058777 0.329374 -0.000478
v 0.061506 0.329374 -0.000478
v 0.121649 0.236774 -0.048191
v 0.105534 0.129140 -0.233210
v -0.102804 0.129140 -0.233210
v -0.206972 0.289526 -0.150569
v -0.102804 0.449912 -0.067928
v 0.105534 0.449912 -0.067928
v 0.209702 0.289526 -0.150569
v 0.121649 0.158583 -0.351291
v -0.118919 0.158583 -0.351291
v -0.239202 0.343782 -0.255866
v -0.118919 0.528980 -0.160440
v 0.121649 0.528980 -0.160440
v 0.241932 0.343782 -0.255866
v 0.105534 0.241801 -0.451859
v -0.102804 0.241801 -0.451859
v -0.206972 0.402188 -0.369217
v -0.102804 0.562574 -0.286576
v 0.105534 0.562574 -0.286576
v 0.209702 0.402188 -0.369217
v 0.061506 0.371973 -0.538004
v -0.058777 0.371973 -0.538004
v -0.118919 0.464572 -0.490291
v -0.058777 0.557172 -0.442578
v 0.061506 0.557172 -0.442578
v 0.121649 0.464572 -0.490291
v 0.001365 0.214237 -0.004452
v 0.001365 0.491280 -0.542124
v -0.133370 0.181858 0.273107
v -0.234179 0.166997 0.337021
v -0.278209 0.258170 0.401959
v -0.221430 0.364205 0.402982
v -0.120622 0.379066 0.339068
v -0.076592 0.287892 0.274130
v -0.163570 0.149418 0.135074
v -0.338176 0.123678 0.245777
v -0.414437 0.281596 0.358252
v -0.316094 0.465253 0.360025
v -0.141489 0.490993 0.249322
v -0.065228 0.333075 0.136847
v -0.215986 0.160271 0.024599
v -0.417603 0.130549 0.152427
v -0.505662 0.312896 0.282303
v -0.392105 0.524965 0.284350
v -0.190489 0.554687 0.156521
v -0.102429 0.372340 0.026646
v -0.296908 0.222682 -0.058196
v -0.471514 0.196942 0.052507
v -0.547774 0.354860 0.164982
v -0.449432 0.538517 0.166755
v -0.274827 0.564257 0.056052
v -0.198565 0.406339 -0.056423
v -0.402974 0.329994 -0.117679
v -0.503782 0.315134 -0.053765
v -0.547812 0.406307 0.011172
v -0.491034 0.512342 0.012196
v -0.390225 0.527203 -0.051718
v -0.346195 0.436029 -0.116656
v -0.150727 0.258375 0.376707
v -0.478613 0.438536 -0.098559
v 0.631316 -0.000000 -0.364490
v 0.364491 -0.000000 -0.631316
v 0.000000 -0.000000 -0.728981
v -0.364491 -0.000000 -0.631316
v -0.631315 -0.000000 -0.364490
v -0.728981 -0.000000 0.000000
v -0.631315 -0.000000 0.364490
v -0.364491 -0.000000 0.631316
v 0.000000 -0.000000 0.728981
v 0.364491 -0.000000 0.631316
v 0.631316 -0.000000 0.364490
v 0.728981 -0.000000 0.000000
v 0.709385 0.375543 -0.409563
v 0.409563 0.375543 -0.709384
v 0.000000 0.375543 -0.819127
v -0.409563 0.375543 -0.709384
v -0.709383 0.375543 -0.409563
v -0.819126 0.375543 0.000000
v -0.709383 0.375543 0.409563
v -0.409563 0.375543 0.709384
v 0.000000 0.375543 0.819127
v 0.409563 0.375543 0.709384
v 0.709385 0.375543 0.409563
v 0.819126 0.375543 0.000000
v 0.595964 0.445090 -0.344079
v 0.344079 0.445090 -0.595963
v 0.000000 0.445090 -0.688159
v -0.344080 0.445090 -0.595963
v -0.595963 0.445090 -0.344079
v -0.688157 0.445090 0.000000
v -0.595963 0.445090 0.344079
v -0.344080 0.445090 0.595963
v 0.000000 0.445090 0.688159
v 0.344079 0.445090 0.595963
v 0.595964 0.445090 0.344079
v 0.688159 0.445090 0.000000
v 0.478670 0.194422 -0.276360
v 0.276360 0.194422 -0.478669
v 0.000000 0.130378 0.000000
v 0.000000 0.194422 -0.552719
v -0.276360 0.194422 -0.478669
v -0.478668 0.194422 -0.276360
v -0.552718 0.194422 0.000000
v -0.478668 0.194422 0.276360
v -0.276360 0.194422 0.478669
v 0.000000 0.194422 0.552719
v 0.276360 0.194422 0.478669
v 0.478670 0.194422 0.276360
v 0.552720 0.194422 0.000000
vt 0.195249 0.365157
vt 0.154506 0.365157
vt 0.143713 0.407181
vt 0.207237 0.407181
vt 0.121332 0.346421
vt 0.082195 0.391856
vt 0.154506 0.365157
vt 0.143713 0.407181
vt 0.195249 0.365157
vt 0.207237 0.407181
vt 0.229404 0.346421
vt 0.270308 0.391856
vt 0.140973 0.441885
vt 0.210089 0.441885
vt 0.069390 0.439713
vt 0.140973 0.441885
vt 0.210089 0.441885
vt 0.281689 0.439713
vt 0.143713 0.478778
vt 0.207237 0.478778
vt 0.080844 0.491365
vt 0.143713 0.478778
vt 0.207237 0.478778
vt 0.270308 0.491365
vt 0.154506 0.525777
vt 0.195249 0.525777
vt 0.121739 0.544679
vt 0.154506 0.525777
vt 0.195249 0.525777
vt 0.229404 0.544679
vt 0.175451 0.327877
vt 0.175451 0.564326
vt 0.229404 0.544679
vt 0.175451 0.564326
vt 0.121739 0.544679
vt 0.175451 0.327877
vt 0.229404 0.346421
vt 0.121332 0.346421
vt 0.270308 0.491365
vt 0.080844 0.491365
vt 0.281689 0.439713
vt 0.069390 0.439713
vt 0.270308 0.391856
vt 0.082195 0.391856
vt 0.195249 0.365157
vt 0.154506 0.365157
vt 0.143713 0.407181
vt 0.207237 0.407181
vt 0.121332 0.346421
vt 0.082195 0.391856
vt 0.121332 0.346421
vt 0.154506 0.365157
vt 0.143713 0.407181
vt 0.082195 0.391856
vt 0.195249 0.365157
vt 0.207237 0.407181
vt 0.229404 0.346421
vt 0.270308 0.391856
vt 0.229404 0.346421
vt 0.270308 0.391856
vt 0.140973 0.441885
vt 0.210089 0.441885
vt 0.069390 0.439713
vt 0.140973 0.441885
vt 0.069390 0.439713
vt 0.210089 0.441885
vt 0.281689 0.439713
vt 0.281689 0.439713
vt 0.143713 0.478778
vt 0.207237 0.478778
vt 0.080844 0.491365
vt 0.143713 0.478778
vt 0.080844 0.491365
vt 0.207237 0.478778
vt 0.270308 0.491365
vt 0.270308 0.491365
vt 0.154506 0.525777
vt 0.195249 0.525777
vt 0.121739 0.544679
vt 0.154506 0.525777
vt 0.121739 0.544679
vt 0.195249 0.525777
vt 0.229404 0.544679
vt 0.229404 0.544679
vt 0.175451 0.327877
vt 0.175451 0.327877
vt 0.175451 0.564326
vt 0.175451 0.564326
vt 0.195249 0.365157
vt 0.154506 0.365157
vt 0.143713 0.407181
vt 0.207237 0.407181
vt 0.121332 0.346421
vt 0.082195 0.391856
vt 0.121332 0.346421
vt 0.154506 0.365157
vt 0.143713 0.407181
vt 0.082195 0.391856
vt 0.195249 0.365157
vt 0.207237 0.407181
vt 0.229404 0.346421
vt 0.270308 0.391856
vt 0.229404 0.346421
vt 0.270308 0.391856
vt 0.140973 0.441885
vt 0.210089 0.441885
vt 0.069390 0.439713
vt 0.140973 0.441885
vt 0.069390 0.439713
vt 0.210089 0.441885
vt 0.281689 0.439713
vt 0.281689 0.439713
vt 0.143713 0.478778
vt 0.207237 0.478778
vt 0.080844 0.491365
vt 0.143713 0.478778
vt 0.080844 0.491365
vt 0.207237 0.478778
vt 0.270308 0.491365
vt 0.270308 0.491365
vt 0.154506 0.525777
vt 0.195249 0.525777
vt 0.121739 0.544679
vt 0.154506 0.525777
vt 0.121739 0.544679
vt 0.195249 0.525777
vt 0.229404 0.544679
vt 0.229404 0.544679
vt 0.175451 0.327877
vt 0.175451 0.327877
vt 0.175451 0.564326
vt 0.175451 0.564326
vt 0.935410 0.541643
vt 0.808784 0.668685
vt 0.755693 0.578724
vt 0.844452 0.490280
vt 0.635602 0.715393
vt 0.634604 0.610939
vt 0.462268 0.669252
vt 0.513631 0.578294
vt 0.335227 0.542627
vt 0.425187 0.489536
vt 0.288518 0.369445
vt 0.392972 0.368447
vt 0.334659 0.196110
vt 0.425617 0.247473
vt 0.461285 0.069069
vt 0.514375 0.159030
vt 0.634466 0.022361
vt 0.635464 0.126814
vt 0.807801 0.068501
vt 0.756438 0.159459
vt 0.934842 0.195127
vt 0.844881 0.248218
vt 0.981550 0.368309
vt 0.877097 0.369307
vt 0.420975 0.882528
vt 0.347996 0.955506
vt 0.248306 0.782838
vt 0.248306 0.982218
vt 0.148616 0.955506
vt 0.075638 0.882528
vt 0.048926 0.782838
vt 0.075638 0.683148
vt 0.148616 0.610170
vt 0.248306 0.583458
vt 0.347996 0.610170
vt 0.420975 0.683148
vt 0.447687 0.782838
vt 0.734681 0.541771
vt 0.807779 0.468784
vt 0.634884 0.568431
vt 0.535127 0.541621
vt 0.462140 0.468524
vt 0.435480 0.368727
vt 0.462290 0.268969
vt 0.535387 0.195983
vt 0.635184 0.169322
vt 0.734942 0.196133
vt 0.807929 0.269230
vt 0.834589 0.369027
vt 0.696437 0.475988
vt 0.741766 0.430936
vt 0.634655 0.492339
vt 0.572975 0.475609
vt 0.527923 0.430280
vt 0.511572 0.368498
vt 0.528302 0.306817
vt 0.573631 0.261766
vt 0.635413 0.245414
vt 0.697094 0.262145
vt 0.742145 0.307474
vt 0.758496 0.369256
vn 0.016072 -0.864863 0.501751
vn -0.629406 -0.762257 0.151041
vn -0.568447 -0.807565 -0.157185
vn 0.227441 -0.934082 0.275248
vn -0.975029 -0.107400 0.194382
vn -0.994604 -0.000117 -0.103745
vn -0.675171 0.444849 0.588433
vn -0.624876 0.680815 0.382126
vn -0.029692 0.342241 0.939143
vn 0.171012 0.554299 0.814560
vn 0.315930 -0.312614 0.895802
vn 0.597170 -0.253149 0.761120
vn -0.403871 -0.744286 -0.531908
vn 0.466357 -0.882621 -0.059082
vn -0.869835 0.138585 -0.473477
vn -0.465570 0.883123 0.057780
vn 0.404657 0.744788 0.530607
vn 0.870622 -0.138084 0.472175
vn -0.192789 -0.574925 -0.795169
vn 0.615158 -0.703359 -0.356183
vn -0.625405 0.244759 -0.740920
vn -0.250073 0.936011 -0.247685
vn 0.557875 0.807576 0.191302
vn 0.990490 -0.012109 0.137052
vn -0.021382 -0.399819 -0.916345
vn 0.668831 -0.509538 -0.541329
vn -0.390957 0.300420 -0.870000
vn -0.070319 0.890942 -0.448641
vn 0.619894 0.781224 -0.073626
vn 0.989469 0.080983 -0.119970
vn -0.491357 -0.313119 0.812727
vn 0.491357 0.313119 -0.812727
vn 0.370867 -0.878218 0.301979
vn -0.370867 -0.878218 0.301978
vn -0.457285 -0.889314 -0.003275
vn 0.457286 -0.889314 -0.003275
vn -0.741735 -0.307201 0.596202
vn -0.914571 -0.185241 0.359508
vn -0.370867 0.263816 0.890426
vn -0.457286 0.518832 0.722291
vn 0.370867 0.263816 0.890426
vn 0.457286 0.518832 0.722291
vn 0.741735 -0.307201 0.596202
vn 0.914571 -0.185241 0.359508
vn -0.500000 -0.769473 -0.397381
vn 0.500000 -0.769472 -0.397381
vn -1.000000 0.000367 -0.000712
vn -0.500000 0.770206 0.395958
vn 0.500000 0.770206 0.395958
vn 1.000000 0.000367 -0.000712
vn -0.464215 -0.544579 -0.698526
vn 0.464215 -0.544579 -0.698526
vn -0.928430 0.170164 -0.330246
vn -0.464215 0.884906 0.038034
vn 0.464215 0.884906 0.038034
vn 0.928430 0.170164 -0.330246
vn -0.396569 -0.331628 -0.856012
vn 0.396569 -0.331628 -0.856012
vn -0.793139 0.278962 -0.541397
vn -0.396569 0.889552 -0.226783
vn 0.396569 0.889552 -0.226783
vn 0.793139 0.278962 -0.541397
vn -0.000000 -0.458035 0.888934
vn 0.000000 0.458035 -0.888934
vn 0.635091 -0.761998 0.126563
vn 0.013453 -0.853639 0.520691
vn -0.212475 -0.926691 0.309998
vn 0.554016 -0.813696 -0.175971
vn -0.258060 -0.291413 0.921132
vn -0.547253 -0.233456 0.803749
vn 0.092068 0.362454 0.927443
vn -0.115541 0.572773 0.811530
vn 0.713706 0.454092 0.533314
vn 0.650950 0.685766 0.325560
vn 0.985217 -0.108133 0.132872
vn 0.985726 -0.007468 -0.168190
vn -0.472471 -0.881299 -0.009137
vn 0.365614 -0.757751 -0.540499
vn -0.838520 -0.123310 0.530734
vn -0.366483 0.758227 0.539242
vn 0.471603 0.881776 0.007880
vn 0.837653 0.123787 -0.531992
vn -0.639647 -0.707787 -0.299814
vn 0.138460 -0.593083 -0.793147
vn -0.979497 -0.004048 0.201418
vn -0.541244 0.814396 0.209317
vn 0.236862 0.929103 -0.284015
vn 0.576714 0.225363 -0.785247
vn -0.704549 -0.517771 -0.485307
vn -0.039830 -0.419782 -0.906751
vn -0.994877 0.083418 -0.057114
vn -0.620486 0.782598 -0.050367
vn 0.044233 0.880590 -0.471810
vn 0.334562 0.279400 -0.900002
vn 0.542093 -0.297860 0.785757
vn -0.542094 0.297860 -0.785757
vn 0.842104 -0.233411 -0.486189
vn 0.486189 -0.233410 -0.842104
vn 0.499304 0.052727 -0.864821
vn 0.864821 0.052725 -0.499305
vn 0.000000 -0.233410 -0.972378
vn 0.000000 0.052727 -0.998609
vn -0.486190 -0.233410 -0.842104
vn -0.499305 0.052726 -0.864821
vn -0.842105 -0.233409 -0.486189
vn -0.864821 0.052727 -0.499304
vn -0.972379 -0.233409 0.000000
vn -0.998609 0.052727 -0.000000
vn -0.842105 -0.233409 0.486189
vn -0.864821 0.052727 0.499304
vn -0.486190 -0.233410 0.842104
vn -0.499305 0.052726 0.864821
vn 0.000000 -0.233410 0.972378
vn 0.000000 0.052727 0.998609
vn 0.486189 -0.233410 0.842104
vn 0.499304 0.052727 0.864821
vn 0.842104 -0.233411 0.486189
vn 0.864821 0.052725 0.499305
vn 0.972378 -0.233410 0.000000
vn 0.998609 0.052725 0.000000
vn -0.555781 0.766905 0.320881
vn -0.320880 0.766905 0.555781
vn 0.000000 1.000000 0.000000
vn -0.000000 0.766904 0.641761
vn 0.320881 0.766905 0.555781
vn 0.555782 0.766905 0.320879
vn 0.641761 0.766904 0.000000
vn 0.555782 0.766905 -0.320879
vn 0.320881 0.766905 -0.555781
vn 0.000000 0.766905 -0.641761
vn -0.320880 0.766905 -0.555781
vn -0.555781 0.766905 -0.320881
vn -0.641761 0.766905 0.000000
vn -0.200012 0.916504 0.346432
vn -0.346430 0.916505 0.200012
vn 0.000000 0.916505 0.400023
vn 0.200012 0.916505 0.346430
vn 0.346431 0.916505 0.200011
vn 0.400025 0.916504 -0.000000
vn 0.346431 0.916505 -0.200011
vn 0.200012 0.916505 -0.346430
vn 0.000000 0.916505 -0.400023
vn -0.200012 0.916504 -0.346432
vn -0.346430 0.916505 -0.200012
vn -0.400027 0.916504 0.000000
s 1
g nest01
usemtl lambert8SG
f 1/1/1 2/2/2 8/3/3 7/4/4
f 2/2/2 3/5/5 9/44/6 8/3/3
f 3/38/5 4/7/7 10/8/8 9/6/6
f 4/7/7 5/9/9 11/10/10 10/8/8
f 5/9/9 6/11/11 12/43/12 11/10/10
f 6/37/11 1/1/1 7/4/4 12/12/12
f 7/4/4 8/3/3 14/13/13 13/14/14
f 8/3/3 9/44/6 15/42/15 14/13/13
f 9/6/6 10/8/8 16/16/16 15/15/15
f 10/8/8 11/10/10 17/17/17 16/16/16
f 11/10/10 12/43/12 18/41/18 17/17/17
f 12/12/12 7/4/4 13/14/14 18/18/18
f 13/14/14 14/13/13 20/19/19 19/20/20
f 14/13/13 15/42/15 21/40/21 20/19/19
f 15/15/15 16/16/16 22/22/22 21/21/21
f 16/16/16 17/17/17 23/23/23 22/22/22
f 17/17/17 18/41/18 24/39/24 23/23/23
f 18/18/18 13/14/14 19/20/20 24/24/24
f 19/20/20 20/19/19 26/25/25 25/26/26
f 20/19/19 21/40/21 27/35/27 26/25/25
f 21/21/21 22/22/22 28/28/28 27/27/27
f 22/22/22 23/23/23 29/29/29 28/28/28
f 23/23/23 24/39/24 30/33/30 29/29/29
f 24/24/24 19/20/20 25/26/26 30/30/30
f 2/2/2 1/1/1 31/31/31
f 3/5/5 2/2/2 31/31/31
f 4/7/7 3/38/5 31/36/31
f 5/9/9 4/7/7 31/36/31
f 6/11/11 5/9/9 31/36/31
f 1/1/1 6/37/11 31/31/31
f 25/26/26 26/25/25 32/34/32
f 26/25/25 27/35/27 32/34/32
f 27/27/27 28/28/28 32/32/32
f 28/28/28 29/29/29 32/32/32
f 29/29/29 30/33/30 32/32/32
f 30/30/30 25/26/26 32/34/32
s 2
f 33/45/33 34/46/34 40/47/35 39/48/36
f 34/46/34 35/49/37 41/50/38 40/47/35
f 35/51/37 36/52/39 42/53/40 41/54/38
f 36/52/39 37/55/41 43/56/42 42/53/40
f 37/55/41 38/57/43 44/58/44 43/56/42
f 38/59/43 33/45/33 39/48/36 44/60/44
f 39/48/36 40/47/35 46/61/45 45/62/46
f 40/47/35 41/50/38 47/63/47 46/61/45
f 41/54/38 42/53/40 48/64/48 47/65/47
f 42/53/40 43/56/42 49/66/49 48/64/48
f 43/56/42 44/58/44 50/67/50 49/66/49
f 44/60/44 39/48/36 45/62/46 50/68/50
f 45/62/46 46/61/45 52/69/51 51/70/52
f 46/61/45 47/63/47 53/71/53 52/69/51
f 47/65/47 48/64/48 54/72/54 53/73/53
f 48/64/48 49/66/49 55/74/55 54/72/54
f 49/66/49 50/67/50 56/75/56 55/74/55
f 50/68/50 45/62/46 51/70/52 56/76/56
f 51/70/52 52/69/51 58/77/57 57/78/58
f 52/69/51 53/71/53 59/79/59 58/77/57
f 53/73/53 54/72/54 60/80/60 59/81/59
f 54/72/54 55/74/55 61/82/61 60/80/60
f 55/74/55 56/75/56 62/83/62 61/82/61
f 56/76/56 51/70/52 57/78/58 62/84/62
f 34/46/34 33/45/33 63/85/63
f 35/49/37 34/46/34 63/85/63
f 36/52/39 35/51/37 63/86/63
f 37/55/41 36/52/39 63/86/63
f 38/57/43 37/55/41 63/86/63
f 33/45/33 38/59/43 63/85/63
f 57/78/58 58/77/57 64/87/64
f 58/77/57 59/79/59 64/87/64
f 59/81/59 60/80/60 64/88/64
f 60/80/60 61/82/61 64/88/64
f 61/82/61 62/83/62 64/88/64
f 62/84/62 57/78/58 64/87/64
s 3
f 65/89/65 66/90/66 72/91/67 71/92/68
f 66/90/66 67/93/69 73/94/70 72/91/67
f 67/95/69 68/96/71 74/97/72 73/98/70
f 68/96/71 69/99/73 75/100/74 74/97/72
f 69/99/73 70/101/75 76/102/76 75/100/74
f 70/103/75 65/89/65 71/92/68 76/104/76
f 71/92/68 72/91/67 78/105/77 77/106/78
f 72/91/67 73/94/70 79/107/79 78/105/77
f 73/98/70 74/97/72 80/108/80 79/109/79
f 74/97/72 75/100/74 81/110/81 80/108/80
f 75/100/74 76/102/76 82/111/82 81/110/81
f 76/104/76 71/92/68 77/106/78 82/112/82
f 77/106/78 78/105/77 84/113/83 83/114/84
f 78/105/77 79/107/79 85/115/85 84/113/83
f 79/109/79 80/108/80 86/116/86 85/117/85
f 80/108/80 81/110/81 87/118/87 86/116/86
f 81/110/81 82/111/82 88/119/88 87/118/87
f 82/112/82 77/106/78 83/114/84 88/120/88
f 83/114/84 84/113/83 90/121/89 89/122/90
f 84/113/83 85/115/85 91/123/91 90/121/89
f 85/117/85 86/116/86 92/124/92 91/125/91
f 86/116/86 87/118/87 93/126/93 92/124/92
f 87/118/87 88/119/88 94/127/94 93/126/93
f 88/120/88 83/114/84 89/122/90 94/128/94
f 66/90/66 65/89/65 95/129/95
f 67/93/69 66/90/66 95/129/95
f 68/96/71 67/95/69 95/130/95
f 69/99/73 68/96/71 95/130/95
f 70/101/75 69/99/73 95/130/95
f 65/89/65 70/103/75 95/129/95
f 89/122/90 90/121/89 96/131/96
f 90/121/89 91/123/91 96/131/96
f 91/125/91 92/124/92 96/132/96
f 92/124/92 93/126/93 96/132/96
f 93/126/93 94/127/94 96/132/96
f 94/128/94 89/122/90 96/131/96
s 4
f 97/133/97 98/134/98 110/135/99 109/136/100
f 98/134/98 99/137/101 111/138/102 110/135/99
f 99/137/101 100/139/103 112/140/104 111/138/102
f 100/139/103 101/141/105 113/142/106 112/140/104
f 101/141/105 102/143/107 114/144/108 113/142/106
f 102/143/107 103/145/109 115/146/110 114/144/108
f 103/145/109 104/147/111 116/148/112 115/146/110
f 104/147/111 105/149/113 117/150/114 116/148/112
f 105/149/113 106/151/115 118/152/116 117/150/114
f 106/151/115 107/153/117 119/154/118 118/152/116
f 107/153/117 108/155/119 120/156/120 119/154/118
f 108/155/119 97/133/97 109/136/100 120/156/120
f 133/157/121 134/158/122 135/159/123
f 134/158/122 136/160/124 135/159/123
f 136/160/124 137/161/125 135/159/123
f 137/161/125 138/162/126 135/159/123
f 138/162/126 139/163/127 135/159/123
f 139/163/127 140/164/128 135/159/123
f 140/164/128 141/165/129 135/159/123
f 141/165/129 142/166/130 135/159/123
f 142/166/130 143/167/131 135/159/123
f 143/167/131 144/168/132 135/159/123
f 144/168/132 145/169/133 135/159/123
f 145/169/133 133/157/121 135/159/123
f 109/136/100 110/135/99 122/170/134 121/171/135
f 110/135/99 111/138/102 123/172/136 122/170/134
f 111/138/102 112/140/104 124/173/137 123/172/136
f 112/140/104 113/142/106 125/174/138 124/173/137
f 113/142/106 114/144/108 126/175/139 125/174/138
f 114/144/108 115/146/110 127/176/140 126/175/139
f 115/146/110 116/148/112 128/177/141 127/176/140
f 116/148/112 117/150/114 129/178/142 128/177/141
f 117/150/114 118/152/116 130/179/143 129/178/142
f 118/152/116 119/154/118 131/180/144 130/179/143
f 119/154/118 120/156/120 132/181/145 131/180/144
f 120/156/120 109/136/100 121/171/135 132/181/145
f 121/171/135 122/170/134 134/182/122 133/183/121
f 122/170/134 123/172/136 136/184/124 134/182/122
f 123/172/136 124/173/137 137/185/125 136/184/124
f 124/173/137 125/174/138 138/186/126 137/185/125
f 125/174/138 126/175/139 139/187/127 138/186/126
f 126/175/139 127/176/140 140/188/128 139/187/127
f 127/176/140 128/177/141 141/189/129 140/188/128
f 128/177/141 129/178/142 142/190/130 141/189/129
f 129/178/142 130/179/143 143/191/131 142/190/130
f 130/179/143 131/180/144 144/192/132 143/191/131
f 131/180/144 132/181/145 145/193/133 144/192/132
f 132/181/145 121/171/135 133/183/121 145/193/133
