# This file uses centimeters as units for non-parametric coordinates.

mtllib plant02.mtl
g default
v 1.036136 0.114284 0.000002
v 0.983575 0.311321 0.000002
v 0.845050 0.515057 0.000002
v 0.574437 0.531254 0.000002
v 0.444347 0.278531 0.000002
v 0.286676 0.325211 0.000002
v 0.407300 0.676354 0.000002
v 0.702819 0.754345 0.000002
v 0.962228 0.595405 0.000002
v 0.770190 0.631875 0.301972
v 0.492226 0.599491 0.387307
v 0.366144 0.301967 0.302635
v 0.366144 0.301967 -0.302633
v 0.492226 0.599490 -0.387305
v 0.770190 0.631875 -0.301970
v 0.995116 0.456607 -0.220936
v 0.995116 0.456607 0.220937
v 0.047099 -0.008158 0.000000
v 0.000000 0.419205 -1.104794
v 0.000000 0.592477 -0.986114
v 0.000000 0.753399 -0.750058
v 0.000000 0.635396 -0.444936
v 0.000000 0.231513 -0.173100
v 0.000000 0.302477 -0.028860
v 0.000000 0.789826 -0.322111
v 0.000000 0.977530 -0.655963
v 0.000000 0.868106 -0.931557
v -0.302061 0.861769 -0.700650
v -0.387041 0.710147 -0.384198
v -0.302554 0.266829 -0.102184
v 0.302555 0.266829 -0.102184
v 0.387040 0.710147 -0.384198
v 0.302061 0.861769 -0.700650
v 0.220608 0.731160 -0.953576
v -0.220610 0.731161 -0.953576
v 0.000000 -0.008814 -0.002853
v -1.036136 0.114284 0.000002
v -0.983575 0.311321 0.000002
v -0.845050 0.515057 0.000002
v -0.574436 0.531254 0.000002
v -0.444346 0.278531 0.000002
v -0.286676 0.325211 0.000002
v -0.407300 0.676354 0.000002
v -0.702819 0.754345 0.000002
v -0.962228 0.595405 0.000002
v -0.770190 0.631875 0.301972
v -0.492226 0.599491 0.387307
v -0.366144 0.301967 0.302635
v -0.366144 0.301967 -0.302633
v -0.492226 0.599490 -0.387305
v -0.770190 0.631875 -0.301970
v -0.995116 0.456607 -0.220936
v -0.995116 0.456607 0.220937
v -0.047098 -0.008158 0.000000
v 0.000000 0.419205 1.104794
v 0.000000 0.592477 0.986114
v 0.000000 0.753399 0.750058
v 0.000000 0.635396 0.444936
v 0.000000 0.231513 0.173100
v 0.000000 0.302477 0.028860
v 0.000000 0.789826 0.322111
v 0.000000 0.977530 0.655963
v 0.000000 0.868106 0.931557
v 0.302063 0.861769 0.700650
v 0.387041 0.710147 0.384198
v 0.302555 0.266829 0.102184
v -0.302554 0.266829 0.102184
v -0.387040 0.710147 0.384198
v -0.302060 0.861769 0.700650
v -0.220609 0.731160 0.953576
v 0.220609 0.731160 0.953576
v 0.000000 -0.008814 0.002853
vt 0.272317 0.677996
vt 0.195372 0.680853
vt 0.180836 0.764522
vt 0.272316 0.755358
vt 0.197228 0.836622
vt 0.272323 0.820222
vt 0.215769 0.909366
vt 0.272273 0.885040
vt 0.272315 0.993337
vt 0.328900 0.909393
vt 0.347419 0.836588
vt 0.363797 0.764537
vt 0.349262 0.680850
vt 0.682913 0.742141
vt 0.610033 0.731605
vt 0.580825 0.799128
vt 0.682914 0.812382
vt 0.605203 0.858619
vt 0.682915 0.879451
vt 0.627003 0.919160
vt 0.682920 0.940836
vt 0.682912 0.991500
vt 0.738816 0.919160
vt 0.760623 0.858620
vt 0.785002 0.799128
vt 0.755793 0.731605
vt 0.272318 0.604039
vt 0.682913 0.668024
vt 0.089988 0.657887
vt 0.089988 0.767873
vt 0.012934 0.770418
vt 0.031781 0.657465
vt 0.089988 0.844395
vt 0.028717 0.851410
vt 0.089988 0.898906
vt 0.045000 0.921649
vt 0.089988 1.000193
vt 0.134975 0.921649
vt 0.151259 0.851410
vt 0.167042 0.770418
vt 0.148195 0.657465
vt 0.465451 0.711787
vt 0.465451 0.813053
vt 0.390465 0.809773
vt 0.408803 0.704142
vt 0.465451 0.883424
vt 0.403035 0.877327
vt 0.465450 0.946872
vt 0.422583 0.925479
vt 0.465451 0.989650
vt 0.508318 0.925479
vt 0.527866 0.877327
vt 0.540436 0.809773
vt 0.522099 0.704142
vt 0.089988 0.591454
vt 0.465451 0.648879
vt 0.272317 0.677996
vt 0.272316 0.755358
vt 0.180836 0.764522
vt 0.195372 0.680853
vt 0.272323 0.820222
vt 0.197228 0.836622
vt 0.272273 0.885040
vt 0.215769 0.909366
vt 0.272315 0.993337
vt 0.328900 0.909393
vt 0.347419 0.836588
vt 0.363797 0.764537
vt 0.349262 0.680850
vt 0.682913 0.742141
vt 0.682914 0.812382
vt 0.580825 0.799128
vt 0.610033 0.731605
vt 0.682915 0.879451
vt 0.605203 0.858619
vt 0.682920 0.940836
vt 0.627003 0.919160
vt 0.682912 0.991500
vt 0.738816 0.919160
vt 0.760623 0.858620
vt 0.785002 0.799128
vt 0.755793 0.731605
vt 0.272318 0.604039
vt 0.682913 0.668024
vt 0.089988 0.657887
vt 0.089988 0.767873
vt 0.012934 0.770418
vt 0.031781 0.657465
vt 0.089988 0.844395
vt 0.028717 0.851410
vt 0.089988 0.898906
vt 0.045000 0.921649
vt 0.089988 1.000193
vt 0.134975 0.921649
vt 0.151259 0.851410
vt 0.167042 0.770418
vt 0.148195 0.657465
vt 0.465451 0.711787
vt 0.465451 0.813053
vt 0.390465 0.809773
vt 0.408803 0.704142
vt 0.465451 0.883424
vt 0.403035 0.877327
vt 0.465450 0.946872
vt 0.422583 0.925479
vt 0.465451 0.989650
vt 0.508318 0.925479
vt 0.527866 0.877327
vt 0.540436 0.809773
vt 0.522099 0.704142
vt 0.089988 0.591454
vt 0.465451 0.648879
vn -0.907427 0.420209 0.000000
vn -0.893837 0.363893 0.261986
vn -0.629587 0.705529 0.325345
vn -0.680715 0.732548 -0.000000
vn 0.191409 0.930738 0.311592
vn 0.135072 0.990836 -0.000000
vn 0.815842 0.558306 0.150653
vn 0.738139 0.674649 0.000000
vn 0.988406 0.151835 0.000000
vn 0.815841 0.558307 -0.150653
vn 0.191409 0.930739 -0.311590
vn -0.629587 0.705529 -0.325343
vn -0.893838 0.363894 -0.261984
vn 0.794416 -0.607374 0.000000
vn 0.790093 -0.560114 -0.249049
vn 0.583891 -0.754358 -0.300025
vn 0.562165 -0.827025 0.000000
vn -0.108752 -0.951202 -0.288770
vn -0.350008 -0.936747 0.000000
vn -0.690730 -0.672023 -0.266976
vn -0.830289 -0.557334 -0.000000
vn -0.966213 -0.257744 -0.000001
vn -0.690729 -0.672024 0.266978
vn -0.108750 -0.951202 0.288771
vn 0.583891 -0.754358 0.300027
vn 0.790092 -0.560114 0.249050
vn -0.812051 0.583586 -0.000001
vn 0.585205 -0.810885 -0.000001
vn 0.000000 0.433847 0.900987
vn 0.000000 0.699866 0.714274
vn -0.280708 0.660793 0.696100
vn -0.248256 0.453750 0.855851
vn 0.000000 0.991656 0.128914
vn -0.351301 0.928743 0.118426
vn 0.000000 0.784924 -0.619592
vn -0.279096 0.688698 -0.669179
vn -0.000000 0.360035 -0.932939
vn 0.279097 0.688697 -0.669179
vn 0.351301 0.928742 0.118427
vn 0.280709 0.660793 0.696100
vn 0.248256 0.453750 0.855851
vn -0.000000 -0.567074 -0.823667
vn -0.000000 -0.723048 -0.690798
vn 0.270153 -0.692351 -0.669080
vn 0.241477 -0.549065 -0.800135
vn -0.000000 -0.998469 -0.055312
vn 0.326635 -0.921847 -0.208585
vn -0.000000 -0.785578 0.618763
vn 0.321114 -0.822561 0.469339
vn -0.000001 -0.565092 0.825028
vn -0.321113 -0.822561 0.469340
vn -0.326634 -0.921847 -0.208584
vn -0.270152 -0.692351 -0.669080
vn -0.241478 -0.549066 -0.800135
vn 0.000000 0.083256 0.996528
vn 0.000000 -0.578053 -0.815999
vn 0.907427 0.420209 0.000000
vn 0.680716 0.732548 -0.000000
vn 0.629587 0.705529 0.325345
vn 0.893837 0.363893 0.261986
vn -0.135072 0.990836 -0.000000
vn -0.191409 0.930738 0.311592
vn -0.738138 0.674649 0.000000
vn -0.815842 0.558306 0.150653
vn -0.988406 0.151835 0.000000
vn -0.815841 0.558307 -0.150652
vn -0.191409 0.930738 -0.311590
vn 0.629587 0.705529 -0.325344
vn 0.893837 0.363894 -0.261985
vn -0.794416 -0.607374 0.000000
vn -0.562165 -0.827025 0.000000
vn -0.583891 -0.754358 -0.300024
vn -0.790093 -0.560114 -0.249048
vn 0.350008 -0.936747 0.000000
vn 0.108752 -0.951202 -0.288770
vn 0.830288 -0.557334 -0.000000
vn 0.690730 -0.672024 -0.266977
vn 0.966213 -0.257744 -0.000001
vn 0.690728 -0.672024 0.266979
vn 0.108751 -0.951202 0.288772
vn -0.583891 -0.754358 0.300026
vn -0.790093 -0.560114 0.249049
vn 0.812051 0.583587 -0.000001
vn -0.585205 -0.810885 -0.000001
vn -0.000000 0.433847 -0.900987
vn -0.000000 0.699866 -0.714274
vn 0.280708 0.660793 -0.696100
vn 0.248256 0.453750 -0.855851
vn 0.000000 0.991656 -0.128914
vn 0.351300 0.928743 -0.118427
vn 0.000000 0.784924 0.619592
vn 0.279096 0.688698 0.669179
vn 0.000000 0.360035 0.932939
vn -0.279097 0.688697 0.669180
vn -0.351302 0.928742 -0.118426
vn -0.280709 0.660793 -0.696100
vn -0.248256 0.453750 -0.855851
vn 0.000000 -0.567074 0.823667
vn 0.000000 -0.723048 0.690798
vn -0.270153 -0.692351 0.669080
vn -0.241478 -0.549066 0.800135
vn -0.000000 -0.998469 0.055312
vn -0.326635 -0.921847 0.208585
vn -0.000000 -0.785578 -0.618763
vn -0.321115 -0.822561 -0.469339
vn -0.000000 -0.565092 -0.825028
vn 0.321114 -0.822562 -0.469338
vn 0.326634 -0.921848 0.208585
vn 0.270152 -0.692351 0.669079
vn 0.241478 -0.549066 0.800135
vn 0.000000 0.083256 -0.996528
vn 0.000000 -0.578053 0.815999
s 1
g plant02
usemtl lambert7SG
f 6/1/1 12/2/2 11/3/3 7/4/4
f 7/4/4 11/3/3 10/5/5 8/6/6
f 8/6/6 10/5/5 17/7/7 9/8/8
f 9/8/8 17/7/7 1/9/9
f 1/9/9 16/10/10 9/8/8
f 9/8/8 16/10/10 15/11/11 8/6/6
f 8/6/6 15/11/11 14/12/12 7/4/4
f 7/4/4 14/12/12 13/13/13 6/1/1
s 2
f 5/14/14 13/15/15 14/16/16 4/17/17
f 4/17/17 14/16/16 15/18/18 3/19/19
f 3/19/19 15/18/18 16/20/20 2/21/21
f 2/21/21 16/20/20 1/22/22
f 1/22/22 17/23/23 2/21/21
f 2/21/21 17/23/23 10/24/24 3/19/19
f 3/19/19 10/24/24 11/25/25 4/17/17
f 4/17/17 11/25/25 12/26/26 5/14/14
s 1
f 6/1/1 18/27/27 12/2/2
f 13/13/13 18/27/27 6/1/1
s 2
f 5/14/14 18/28/28 13/15/15
f 12/26/26 18/28/28 5/14/14
s 3
f 24/29/29 25/30/30 29/31/31 30/32/32
f 25/30/30 26/33/33 28/34/34 29/31/31
f 26/33/33 27/35/35 35/36/36 28/34/34
f 27/35/35 19/37/37 35/36/36
f 19/37/37 27/35/35 34/38/38
f 27/35/35 26/33/33 33/39/39 34/38/38
f 26/33/33 25/30/30 32/40/40 33/39/39
f 25/30/30 24/29/29 31/41/41 32/40/40
s 4
f 23/42/42 22/43/43 32/44/44 31/45/45
f 22/43/43 21/46/46 33/47/47 32/44/44
f 21/46/46 20/48/48 34/49/49 33/47/47
f 20/48/48 19/50/50 34/49/49
f 19/50/50 20/48/48 35/51/51
f 20/48/48 21/46/46 28/52/52 35/51/51
f 21/46/46 22/43/43 29/53/53 28/52/52
f 22/43/43 23/42/42 30/54/54 29/53/53
s 3
f 24/29/29 30/32/32 36/55/55
f 31/41/41 24/29/29 36/55/55
s 4
f 23/42/42 31/45/45 36/56/56
f 30/54/54 23/42/42 36/56/56
s 5
f 42/57/57 43/58/58 47/59/59 48/60/60
f 43/58/58 44/61/61 46/62/62 47/59/59
f 44/61/61 45/63/63 53/64/64 46/62/62
f 45/63/63 37/65/65 53/64/64
f 37/65/65 45/63/63 52/66/66
f 45/63/63 44/61/61 51/67/67 52/66/66
f 44/61/61 43/58/58 50/68/68 51/67/67
f 43/58/58 42/57/57 49/69/69 50/68/68
s 6
f 41/70/70 40/71/71 50/72/72 49/73/73
f 40/71/71 39/74/74 51/75/75 50/72/72
f 39/74/74 38/76/76 52/77/77 51/75/75
f 38/76/76 37/78/78 52/77/77
f 37/78/78 38/76/76 53/79/79
f 38/76/76 39/74/74 46/80/80 53/79/79
f 39/74/74 40/71/71 47/81/81 46/80/80
f 40/71/71 41/70/70 48/82/82 47/81/81
s 5
f 42/57/57 48/60/60 54/83/83
f 49/69/69 42/57/57 54/83/83
s 6
f 41/70/70 49/73/73 54/84/84
f 48/82/82 41/70/70 54/84/84
s 7
f 60/85/85 61/86/86 65/87/87 66/88/88
f 61/86/86 62/89/89 64/90/90 65/87/87
f 62/89/89 63/91/91 71/92/92 64/90/90
f 63/91/91 55/93/93 71/92/92
f 55/93/93 63/91/91 70/94/94
f 63/91/91 62/89/89 69/95/95 70/94/94
f 62/89/89 61/86/86 68/96/96 69/95/95
f 61/86/86 60/85/85 67/97/97 68/96/96
s 8
f 59/98/98 58/99/99 68/100/100 67/101/101
f 58/99/99 57/102/102 69/103/103 68/100/100
f 57/102/102 56/104/104 70/105/105 69/103/103
f 56/104/104 55/106/106 70/105/105
f 55/106/106 56/104/104 71/107/107
f 56/104/104 57/102/102 64/108/108 71/107/107
f 57/102/102 58/99/99 65/109/109 64/108/108
f 58/99/99 59/98/98 66/110/110 65/109/109
s 7
f 60/85/85 66/88/88 72/111/111
f 67/97/97 60/85/85 72/111/111
s 8
f 59/98/98 67/101/101 72/112/112
f 66/110/110 59/98/98 72/112/112
